<svg width="20" height="20" viewBox="0 0 20 20" fill="none" xmlns="http://www.w3.org/2000/svg">
<path d="M10 8.20191L7.303 9.99991L10 11.7979L12.697 9.99991L10 8.20191ZM14.5 8.79791L17.197 6.99991L11 2.86891V6.46491L14.5 8.79791ZM18 8.86791L16.303 9.99991L18 11.1309V8.86991V8.86791ZM14.5 11.2019L11 13.5349V17.1309L17.197 12.9999L14.5 11.2019ZM9 6.46491V2.86891L2.803 6.99991L5.5 8.79791L9 6.46491ZM2.803 12.9999L9 17.1309V13.5349L5.5 11.2019L2.803 12.9999ZM3.697 9.99991L2 8.86891V11.1309L3.697 9.99991ZM1.11994e-08 6.99991C-2.46193e-05 6.83531 0.0405779 6.67326 0.118205 6.52812C0.195832 6.38299 0.308084 6.25925 0.445 6.16791L9.445 0.167905C9.60933 0.0582665 9.80245 -0.000244141 10 -0.000244141C10.1975 -0.000244141 10.3907 0.0582665 10.555 0.167905L19.555 6.16791C19.6919 6.25925 19.8042 6.38299 19.8818 6.52812C19.9594 6.67326 20 6.83531 20 6.99991V12.9999C20 13.1645 19.9594 13.3266 19.8818 13.4717C19.8042 13.6168 19.6919 13.7406 19.555 13.8319L10.555 19.8319C10.3907 19.9415 10.1975 20.0001 10 20.0001C9.80245 20.0001 9.60933 19.9415 9.445 19.8319L0.445 13.8319C0.308084 13.7406 0.195832 13.6168 0.118205 13.4717C0.0405779 13.3266 -2.46193e-05 13.1645 1.11994e-08 12.9999V6.99991Z" fill="#171717"/>
</svg>
